<svg id="Layer_1" data-name="Layer 1" xmlns="http://www.w3.org/2000/svg" viewBox="0 0 282.81 282.81"><defs><style>.cls-1,.cls-3,.cls-5{fill:none;}.cls-1,.cls-2,.cls-3,.cls-5{stroke:#fff;stroke-miterlimit:10;}.cls-1{stroke-width:3px;}.cls-2,.cls-4{fill:#fff;}.cls-2,.cls-3{stroke-width:4px;}.cls-5{stroke-width:8px;stroke-dasharray:1.12 1.12;}</style></defs><title>chrisWebsiteLogo-W</title><path class="cls-1" d="M155.7,138.19c.11.36.2.73.28,1.1C155.9,138.92,155.81,138.55,155.7,138.19Z" transform="translate(-1.35 -0.99)"/><path class="cls-1" d="M154.68,135.69c.13.25.25.5.37.76C154.93,136.19,154.81,135.94,154.68,135.69Z" transform="translate(-1.35 -0.99)"/><path class="cls-1" d="M155.23,136.86c.15.38.3.77.43,1.17C155.53,137.63,155.39,137.24,155.23,136.86Z" transform="translate(-1.35 -0.99)"/><path class="cls-1" d="M154,134.46c.17.26.33.53.49.81C154.3,135,154.14,134.72,154,134.46Z" transform="translate(-1.35 -0.99)"/><path class="cls-1" d="M155.66,146.75c-.13.4-.28.79-.43,1.18C155.39,147.54,155.53,147.15,155.66,146.75Z" transform="translate(-1.35 -0.99)"/><path class="cls-1" d="M155.05,148.34c-.12.25-.24.51-.37.75C154.81,148.85,154.93,148.59,155.05,148.34Z" transform="translate(-1.35 -0.99)"/><path class="cls-1" d="M156,145.49c-.08.37-.17.74-.28,1.1C155.81,146.23,155.9,145.86,156,145.49Z" transform="translate(-1.35 -0.99)"/><path class="cls-1" d="M154.46,149.52c-.16.27-.32.54-.49.8C154.14,150.06,154.3,149.79,154.46,149.52Z" transform="translate(-1.35 -0.99)"/><path class="cls-1" d="M155.66,138a.94.94,0,0,0,0,.16A.94.94,0,0,1,155.66,138Z" transform="translate(-1.35 -0.99)"/><path class="cls-1" d="M155.05,136.45l.18.41Z" transform="translate(-1.35 -0.99)"/><path class="cls-1" d="M156.05,139.66h0c0-.12-.05-.25-.08-.37C156,139.41,156,139.54,156.05,139.66Z" transform="translate(-1.35 -0.99)"/><path class="cls-1" d="M154.46,135.27c.08.14.15.28.22.42C154.61,135.55,154.54,135.41,154.46,135.27Z" transform="translate(-1.35 -0.99)"/><path class="cls-1" d="M153.8,134.19l.17.27Z" transform="translate(-1.35 -0.99)"/><path class="cls-1" d="M156,145.49c0-.12.05-.24.08-.36h0C156,145.25,156,145.37,156,145.49Z" transform="translate(-1.35 -0.99)"/><path class="cls-1" d="M154,150.32l-.17.27Z" transform="translate(-1.35 -0.99)"/><path class="cls-1" d="M155.7,146.59a1.24,1.24,0,0,0,0,.16A1.24,1.24,0,0,1,155.7,146.59Z" transform="translate(-1.35 -0.99)"/><path class="cls-1" d="M154.68,149.09c-.07.14-.14.29-.22.43C154.54,149.38,154.61,149.23,154.68,149.09Z" transform="translate(-1.35 -0.99)"/><path class="cls-1" d="M155.23,147.93l-.18.41Z" transform="translate(-1.35 -0.99)"/><path class="cls-2" d="M231.89,170.58a93,93,0,1,1,0-56.37h21.84a114,114,0,1,0,0,56.37Z" transform="translate(-1.35 -0.99)"/><path class="cls-3" d="M253.73,170.58h18.49a132,132,0,1,1,0-56.37H253.73" transform="translate(-1.35 -0.99)"/><path class="cls-4" d="M142.75,126.25l-.05,0a2.52,2.52,0,0,0,1.1,4.18,13,13,0,0,1,7.84,5,2.51,2.51,0,0,0,4.32-2.53h0l-2.16,3.76c2.85,0,6.69.87,9.21-.61,1.89-1.12,3.9-4.08,5.41-5.68,1.74-1.83,3.46-3.66,5.18-5.51,5.56-6,11.05-12,16.38-18.24C196.54,99,204.17,91,208.7,81.93c2.1-4.18,1.24-9.32-4.54-7.39C196,77.28,188.37,85,181.92,90.36c-6.82,5.71-13.46,11.65-20,17.68q-5.56,5.11-11,10.34c-1.29,1.22-3.07,2.38-3.54,4.17-.58,2.19,0,5.28.07,7.56l3.76-2.16a20.69,20.69,0,0,0-6-2.34c-3.13-.71-4.47,4.11-1.33,4.82a16.63,16.63,0,0,1,4.81,1.84,2.53,2.53,0,0,0,3.77-2.16c0-2.3-.52-4.75.58-6.84,1-1.9,4.06-3.87,5.64-5.35q4.68-4.42,9.44-8.77c5.86-5.35,11.8-10.62,17.9-15.71,4.48-3.74,9-7.45,13.86-10.73a37.07,37.07,0,0,1,4.61-2.84,6.69,6.69,0,0,0,1.43-.65c.68-.89,1.26,1-.34-.65-1.1-1.09-.41-.81-1.16.83a34.12,34.12,0,0,1-3,4.87c-3.28,4.83-7,9.38-10.73,13.86-5.09,6.1-10.36,12-15.71,17.9q-4.35,4.75-8.76,9.44c-1.49,1.58-3.46,4.64-5.36,5.64-2.13,1.12-4.7.61-7,.58a2.53,2.53,0,0,0-2.16,3.76h0l4.32-2.53a18.5,18.5,0,0,0-10.83-7.28l1.1,4.18.05-.05C148.59,127.54,145.06,124,142.75,126.25Z" transform="translate(-1.35 -0.99)"/><path class="cls-3" d="M125.21,169.92c2.75-2.58,5.57-5.26,8.43-8,0-2.32-.08-4.67-.1-7a14.64,14.64,0,0,1-4.28-4.27l-7-.11c-29,30.15-48.88,54.69-46.08,57.5,2.12,2.12,16.66-8.7,36.64-26.64" transform="translate(-1.35 -0.99)"/><path class="cls-3" d="M133.54,129.93c0-2.38.06-4.73.1-7.05C103.49,93.85,79,74,76.14,76.81s17,27.34,46.08,57.5c2.32-.05,4.66-.08,7-.11A14.52,14.52,0,0,1,133.54,129.93Z" transform="translate(-1.35 -0.99)"/><path class="cls-4" d="M181.9,169q-6.66-7.4-13.51-14.62c-1.63-1.73-3.75-5-5.89-6s-6.34-.26-8.7-.23l2.16,3.76h0a2.5,2.5,0,0,0-4.32-2.52,13.13,13.13,0,0,1-7.84,5,2.52,2.52,0,0,0-1.1,4.18c2.15,2.09,6.46-.5,8.49-1.66l-3.76-2.16c0,3-.81,6.37.61,9,.93,1.71,3.55,3.4,5,4.75,1.62,1.53,3.23,3.05,4.86,4.57,5.48,5.12,11,10.18,16.68,15.12,7.95,7,16.08,14.25,25.11,19.81,2.76,1.7,10,5.48,10.41-.61.23-3.08-2.46-6.51-4-8.89a196.67,196.67,0,0,0-13.08-16.82c-2.07-2.47-5.59,1.09-3.53,3.54,3.76,4.48,7.49,9,10.88,13.77,1.09,1.53,2.16,3.09,3.12,4.71.22.38,1.33,3.25,1.62,3.33-.09,0,1.64-.88,1.57-1.18,0-.09-.63-.11-.71-.2-.36-.45-1.68-.79-2.23-1.09a69.35,69.35,0,0,1-7.27-4.88C189,194.12,182,188,175.06,181.91q-6.56-5.82-13-11.82-3.48-3.26-6.94-6.54c-3.19-3-2.77-4.57-2.71-8.88a2.53,2.53,0,0,0-3.77-2.16,16.37,16.37,0,0,1-4.81,1.85l2.43.64-.05-.05-1.1,4.18A18.5,18.5,0,0,0,156,151.85l-4.32-2.52h0a2.52,2.52,0,0,0,2.16,3.76c2.84,0,5.44-.57,7.72,1.28a66.59,66.59,0,0,1,5.94,6.28q5.52,5.86,10.91,11.85c2.16,2.4,5.68-1.15,3.53-3.53Z" transform="translate(-1.35 -0.99)"/><path class="cls-4" d="M237,142.39c-.76-6.18-13.33-6.45-17.69-7-16.34-2.2-32.91-2.88-49.38-3.35-3.65-.1-8.18-1.3-11.08,1.19-2.13,1.84-5.12,4.26-5.18,7.17,0,1.63-.43,4.45.25,6,.95,2.21,5,6,7.34,6.59s5.44-.12,7.72-.18l7.45-.24q7.38-.27,14.75-.67c7.88-.45,15.76-1,23.61-1.9,5.36-.61,10.89-1.18,16.09-2.7,2.66-.77,5.74-1.77,6.12-4.9s-4.61-3.15-5,0c.21-1.67-.13-.67-1.87-.09a36.75,36.75,0,0,1-4.85,1.15,172.13,172.13,0,0,1-17.53,2.25c-7.76.7-15.54,1.17-23.32,1.53q-6.78.32-13.56.51c-2.13.07-5.64.82-7.65.2-2.28-.71-3.75-2.91-5.38-4.58l.65,2.43a22.15,22.15,0,0,0,0-6.8l-.65,2.43c1.63-1.66,3.1-3.86,5.38-4.57,2-.63,5.52.13,7.65.19q6.35.19,12.69.47c8.07.37,16.14.85,24.19,1.57,5.72.52,11.46,1.11,17.11,2.17a39.88,39.88,0,0,1,5.27,1.23c1.74.58,2.08,1.59,1.87-.09C232.37,145.54,237.38,145.58,237,142.39Z" transform="translate(-1.35 -0.99)"/><path class="cls-3" d="M84.26,148.88c10.93.77,23.85,1.33,38,1.6,1.62-1.69,3.26-3.39,4.94-5.1a14.62,14.62,0,0,0,2.1,5.21h.4l-.17-.27c-.17-.26-.34-.53-.49-.8s-.15-.29-.22-.43-.25-.5-.37-.75l-.18-.41c-.16-.39-.3-.78-.43-1.18a.75.75,0,0,1,0-.16c-.11-.36-.2-.73-.29-1.1,0-.13,0-.27-.07-.41-.06-.31-.11-.62-.15-.94,0-.14,0-.27,0-.4,0-.45-.06-.89-.06-1.35s0-.9.06-1.34c0-.14,0-.27,0-.4,0-.32.09-.64.15-1,0-.13,0-.27.07-.41.09-.37.18-.74.29-1.1a.94.94,0,0,1,0-.16c.13-.4.27-.79.43-1.17l.18-.41c.12-.26.24-.51.37-.76s.14-.28.22-.42.32-.55.49-.81l.17-.27h-.4a14.62,14.62,0,0,0-2.1,5.21c-1.68-1.72-3.32-3.42-4.94-5.1-41.86.8-73.24,4.11-73.24,8.08,0,1.87,6.91,3.58,18.57,5" transform="translate(-1.35 -0.99)"/><path class="cls-3" d="M148.14,83.78c-1.52-20.83-3.83-34.14-6.41-34.14-4,0-7.29,31.39-8.09,73.24q2.54,2.43,5.11,4.94a14.31,14.31,0,0,0-5.21,2.11c0,.13,0,.26,0,.39a14.54,14.54,0,0,1,8.2-2.52h.33a14,14,0,0,1,2.45.22c1.79-1.75,3.55-3.46,5.3-5.14-.15-7.85-.39-15.32-.7-22.29" transform="translate(-1.35 -0.99)"/><path class="cls-3" d="M142.06,157h-.33a14.54,14.54,0,0,1-8.2-2.52c0,.13,0,.27,0,.4a14.47,14.47,0,0,0,5.21,2.1c-1.72,1.68-3.42,3.32-5.11,4.95.8,41.85,4.12,73.24,8.09,73.24s7.28-31.39,8.08-73.24l-5.3-5.14A15.09,15.09,0,0,1,142.06,157Z" transform="translate(-1.35 -0.99)"/><path class="cls-3" d="M155.81,139.91a14.59,14.59,0,0,0-11.6-11.6l.25-.24a13.76,13.76,0,0,0-10.93,2.5v-.25a14.69,14.69,0,0,0-3.87,3.87l-.17.27c-.17.26-.34.53-.49.81s-.15.28-.22.42-.25.5-.37.76l-.18.41c-.16.38-.3.77-.43,1.17a.94.94,0,0,0,0,.16c-.11.36-.21.73-.29,1.1,0,.14,0,.28-.07.41-.06.31-.11.63-.15,1,0,.13,0,.26,0,.4,0,.44-.06.89-.06,1.34s0,.9.06,1.35c0,.13,0,.26,0,.4,0,.32.09.63.15.94,0,.14,0,.28.07.41.08.37.18.74.29,1.1a.75.75,0,0,0,0,.16c.13.4.27.79.43,1.18l.18.41c.12.25.24.51.37.75s.14.29.22.43.32.54.49.8l.17.27a14.54,14.54,0,0,0,3.87,3.87v-.25a13.73,13.73,0,0,0,10.93,2.51l-.25-.24a14.6,14.6,0,0,0,11.6-11.6l.24.25v0c.06-.31.11-.62.15-.94,0-.14,0-.27,0-.4,0-.45.07-.89.07-1.35s0-.9-.07-1.34c0-.14,0-.27,0-.4,0-.32-.09-.64-.15-1v0Z" transform="translate(-1.35 -0.99)"/><circle class="cls-3" cx="147.25" cy="91.22" r="8.22"/><circle class="cls-3" cx="184.57" cy="175.82" r="8.22"/><circle class="cls-3" cx="117.56" cy="174.51" r="8.22"/><circle class="cls-3" cx="75.88" cy="148.76" r="8.22" transform="translate(-24.2 13.09) rotate(-9.22)"/><circle class="cls-5" cx="141.41" cy="141.41" r="137.41"/></svg>